<?xml version="1.0" encoding="UTF-8"?>
<svg id="Layer_2" data-name="Layer 2" xmlns="http://www.w3.org/2000/svg" viewBox="0 0 801.52 239.97">
  <defs>
    <style>
      .cls-1 {
        fill: #eb5f2c;
      }

      .cls-2 {
        fill: #fff;
      }
    </style>
  </defs>
  <g id="Layer_1-2" data-name="Layer 1">
    <g>
      <g>
        <path class="cls-2" d="M245.58,195.39V52.9h31.75v55.98h68.8v-55.98h31.75v142.49h-31.75v-58.22h-68.8v58.22h-31.75Z"/>
        <path class="cls-2" d="M383.67,140.64c0-34.6,23.82-56.99,57.61-56.99s57.61,24.02,57.61,56.99c0,35.42-23.61,58.42-57.61,58.42s-57.61-24.43-57.61-58.42ZM467.33,140.64c0-18.73-10.18-30.74-26.05-30.74s-26.05,12.01-26.05,30.74,10.18,32.16,26.05,32.16,26.05-12.62,26.05-32.16Z"/>
        <path class="cls-2" d="M506.41,201.09h31.14c.2,7.74,8.55,14.04,21.78,14.04,16.08,0,24.43-9.36,24.43-23.21v-13.03c-6.31,9.57-17.1,15.06-31.55,15.06-29.31,0-50.07-22.59-50.07-55.16s20.76-55.16,49.67-55.16c16.49,0,29.72,7.53,35.62,18.73l2.44-14.86h24.83v104.22c0,29.51-21.98,48.24-55.16,48.24-31.35,0-53.13-15.06-53.13-38.88ZM583.76,138.8c0-17.3-10.18-29.31-24.83-29.31s-24.83,12.01-24.83,29.31,10.18,29.52,24.83,29.52,24.83-12.01,24.83-29.52Z"/>
        <path class="cls-2" d="M622.56,195.39V42.73h31.35v152.66h-31.35Z"/>
        <path class="cls-2" d="M658.91,57.99c0-10.38,8.14-18.32,18.52-18.32s18.52,7.94,18.52,18.32-7.94,18.73-18.52,18.73-18.52-8.14-18.52-18.73ZM661.76,195.39v-107.88h31.35v107.88h-31.35Z"/>
        <path class="cls-2" d="M700.76,195.39v-107.88h25.24l2.65,15.27c5.9-10.99,19.13-19.13,35.21-19.13,22.8,0,37.66,15.88,37.66,40.51v71.24h-31.35v-69.62c0-8.96-6.11-15.06-16.69-15.06-12.01,0-21.37,7.94-21.37,19.74v64.93h-31.35Z"/>
      </g>
      <g>
        <rect class="cls-2" x="16" y="38.38" width="185.16" height="185.16" rx="33.74" ry="33.74"/>
        <path class="cls-2" d="M167.43,0H49.74C22.31,0,0,22.31,0,49.74v140.07c0,27.43,22.31,49.74,49.74,49.74h117.69c27.43,0,49.74-22.31,49.74-49.74V49.74c0-27.43-22.31-49.74-49.74-49.74ZM49.74,16h117.69c11.67,0,22.01,6.01,28.07,15.08-7.99-5.49-17.66-8.7-28.07-8.7H49.74c-10.41,0-20.07,3.22-28.07,8.7,6.06-9.08,16.4-15.08,28.07-15.08ZM16,72.12c0-18.56,15.18-33.74,33.74-33.74h117.69c18.56,0,33.74,15.18,33.74,33.74v95.31c0,18.56-15.18,33.74-33.74,33.74H49.74c-18.56,0-33.74-15.18-33.74-33.74v-95.31ZM167.43,223.54H49.74c-11.67,0-22.01-6.01-28.07-15.08,7.99,5.49,17.66,8.7,28.07,8.7h117.69c10.41,0,20.07-3.22,28.07-8.7-6.06,9.08-16.4,15.08-28.07,15.08Z"/>
        <g>
          <path class="cls-2" d="M49.74,230.16h117.69c16.11,0,30.82-6.11,41.94-16.12l-167.89,15.56c2.71.36,5.46.56,8.26.56Z"/>
          <path class="cls-1" d="M167.43,16H49.74c-18.56,0-33.74,15.18-33.74,33.74v117.69c0,18.56,15.18,33.74,33.74,33.74h117.69c18.56,0,33.74-15.18,33.74-33.74V49.74c0-18.56-15.18-33.74-33.74-33.74ZM188.16,167.42c0,11.45-9.28,20.74-20.74,20.74H49.74c-11.44,0-20.74-9.3-20.74-20.74v-19.06c0-6.76,7.98-10.36,13.04-5.88l10.82,9.56c3.79,3.35,9.71,2.29,12.1-2.16l29.04-53.89c2.24-4.15,7.61-5.41,11.45-2.67l25.92,18.42c3.84,2.73,9.2,1.49,11.44-2.65l30.6-56.37c3.88-7.15,14.74-4.39,14.74,3.74v110.96Z"/>
        </g>
      </g>
    </g>
  </g>
</svg>
