<?xml version="1.0" encoding="UTF-8"?>
<svg id="Layer_2" data-name="Layer 2" xmlns="http://www.w3.org/2000/svg" viewBox="0 0 801.52 239.97">
  <defs>
    <style>
      .cls-1 {
        fill: #eb5f2c;
      }

      .cls-2 {
        fill: #fff;
      }
    </style>
  </defs>
  <g id="Layer_1-2" data-name="Layer 1">
    <g>
      <rect class="cls-1" x="12.37" y="12.5" width="191.79" height="191.79" rx="24.95" ry="24.95"/>
      <g>
        <g>
          <path class="cls-2" d="M245.58,195.39V52.9h31.75v55.98h68.8v-55.98h31.75v142.49h-31.75v-58.22h-68.8v58.22h-31.75Z"/>
          <path class="cls-2" d="M383.67,140.64c0-34.6,23.82-56.99,57.61-56.99s57.61,24.02,57.61,56.99c0,35.42-23.61,58.42-57.61,58.42s-57.61-24.43-57.61-58.42ZM467.33,140.64c0-18.73-10.18-30.74-26.05-30.74s-26.05,12.01-26.05,30.74,10.18,32.16,26.05,32.16,26.05-12.62,26.05-32.16Z"/>
          <path class="cls-2" d="M506.41,201.09h31.14c.2,7.74,8.55,14.04,21.78,14.04,16.08,0,24.43-9.36,24.43-23.21v-13.03c-6.31,9.57-17.1,15.06-31.55,15.06-29.31,0-50.07-22.59-50.07-55.16s20.76-55.16,49.67-55.16c16.49,0,29.72,7.53,35.62,18.73l2.44-14.86h24.83v104.22c0,29.51-21.98,48.24-55.16,48.24-31.35,0-53.13-15.06-53.13-38.88ZM583.76,138.8c0-17.3-10.18-29.31-24.83-29.31s-24.83,12.01-24.83,29.31,10.18,29.52,24.83,29.52,24.83-12.01,24.83-29.52Z"/>
          <path class="cls-2" d="M622.56,195.39V42.73h31.35v152.66h-31.35Z"/>
          <path class="cls-2" d="M658.91,57.99c0-10.38,8.14-18.32,18.52-18.32s18.52,7.94,18.52,18.32-7.94,18.73-18.52,18.73-18.52-8.14-18.52-18.73ZM661.76,195.39v-107.88h31.35v107.88h-31.35Z"/>
          <path class="cls-2" d="M700.76,195.39v-107.88h25.24l2.65,15.27c5.9-10.99,19.13-19.13,35.21-19.13,22.8,0,37.66,15.88,37.66,40.51v71.24h-31.35v-69.62c0-8.96-6.11-15.06-16.69-15.06-12.01,0-21.37,7.94-21.37,19.74v64.93h-31.35Z"/>
        </g>
        <g>
          <path class="cls-2" d="M173.42,52.72l-30.6,56.37c-2.25,4.14-7.6,5.38-11.44,2.65l-25.92-18.42c-3.85-2.73-9.22-1.48-11.45,2.67l-29.04,53.89c-2.4,4.45-8.31,5.5-12.1,2.16l-10.82-9.56c-5.07-4.47-13.04-.88-13.04,5.88v19.06c0,11.43,9.3,20.74,20.74,20.74h117.69c11.45,0,20.74-9.28,20.74-20.74V56.46c0-8.14-10.86-10.9-14.74-3.74Z"/>
          <path class="cls-2" d="M167.43,0H49.74C22.31,0,0,22.31,0,49.74v140.07c0,27.43,22.31,49.74,49.74,49.74h117.69c27.43,0,49.74-22.31,49.74-49.74V49.74c0-27.43-22.31-49.74-49.74-49.74ZM201.16,72.12v95.31c0,18.56-15.18,33.74-33.74,33.74H49.74c-18.56,0-33.74-15.18-33.74-33.74V49.74c0-8.29,3.04-15.91,8.05-21.8.07-.09.15-.17.22-.26.36-.41.72-.81,1.1-1.2.08-.08.16-.17.24-.25.91-.93,1.87-1.81,2.88-2.64.05-.04.1-.08.15-.11.44-.36.89-.7,1.36-1.04.12-.09.24-.17.36-.26.41-.29.83-.57,1.26-.85.12-.08.24-.16.36-.23.53-.33,1.06-.65,1.6-.95.01,0,.02-.01.03-.02.57-.31,1.15-.61,1.74-.89.12-.06.24-.11.36-.16.45-.21.91-.41,1.38-.6.18-.07.35-.14.53-.21.44-.17.88-.33,1.32-.48.17-.06.34-.12.51-.17.58-.19,1.16-.36,1.75-.52.03,0,.06-.02.09-.03.62-.16,1.25-.3,1.89-.43.18-.04.36-.06.54-.1.46-.08.92-.16,1.39-.22.22-.03.44-.06.66-.08.46-.05.92-.1,1.38-.13.2-.02.4-.03.6-.05.66-.04,1.32-.06,1.99-.06h117.69c.67,0,1.33.03,1.99.06.2.01.4.03.61.05.46.04.92.08,1.38.13.22.03.44.05.66.08.47.06.93.14,1.39.22.18.03.36.06.54.1.64.13,1.27.27,1.89.43.03,0,.06.02.09.03.59.16,1.17.33,1.75.51.17.06.34.12.51.17.44.15.88.31,1.32.48.18.07.36.14.53.21.46.19.92.39,1.38.6.12.06.24.11.36.17.59.28,1.17.57,1.74.89.01,0,.02.01.04.02.54.3,1.08.62,1.6.94.12.08.24.16.37.23.43.27.84.56,1.26.85.12.09.24.17.36.26.46.33.91.68,1.35,1.04.05.04.1.08.15.11,1.01.82,1.97,1.71,2.88,2.64.08.08.16.16.23.25.38.39.74.8,1.1,1.21.07.09.15.17.22.26,5.01,5.89,8.05,13.51,8.05,21.8v22.38Z"/>
        </g>
      </g>
    </g>
  </g>
</svg>